<svg width="24" height="24" viewBox="0 0 24 24" fill="none" xmlns="http://www.w3.org/2000/svg">
<g clip-path="url(#clip0_3_33)">
<path fill-rule="evenodd" clip-rule="evenodd" d="M1.35 1.14001C1.3597 1.06656 1.34187 0.992116 1.29995 0.931024C1.25803 0.869932 1.19499 0.826511 1.12297 0.809127C1.05095 0.791742 0.975043 0.801623 0.909873 0.836867C0.844702 0.872111 0.794879 0.930224 0.769999 1.00001C-5.36442e-07 4.22001 0.0899994 14.57 0.749999 17.3C1.18 19 6.19 19.05 8 19.06C8.07892 19.0463 8.15048 19.0052 8.20205 18.9439C8.25362 18.8826 8.2819 18.8051 8.2819 18.725C8.2819 18.6449 8.25362 18.5674 8.20205 18.5061C8.15048 18.4448 8.07892 18.4037 8 18.39C6.55 18.32 3.3 18.1 2 17.39C1.62 17.18 1.56 17.58 1.33 11.56C1.24 9.21001 1.16 7.49001 1.14 5.38001C1.19 5.19001 1.22 1.86001 1.35 1.14001Z" fill="white"/>
<path fill-rule="evenodd" clip-rule="evenodd" d="M19.29 4.47001C14.52 4.47001 12.04 3.93001 2.07 4.47001C2.00804 4.47777 1.95025 4.50532 1.90521 4.54856C1.86016 4.5918 1.83028 4.64842 1.82 4.71001V4.82001C1.83208 4.88707 1.86819 4.94742 1.92158 4.98976C1.97496 5.0321 2.04195 5.05352 2.11 5.05001C5.36 4.99001 6.18 5.61001 19.3 5.05001C19.3507 5.07642 19.4074 5.08919 19.4646 5.08707C19.5217 5.08495 19.5774 5.06802 19.626 5.03793C19.6746 5.00784 19.7146 4.96563 19.742 4.91544C19.7694 4.86524 19.7833 4.80879 19.7823 4.75161C19.7813 4.69443 19.7655 4.63849 19.7364 4.58927C19.7073 4.54005 19.6659 4.49924 19.6162 4.47084C19.5666 4.44245 19.5104 4.42744 19.4532 4.4273C19.396 4.42715 19.3398 4.44187 19.29 4.47001Z" fill="white"/>
<path fill-rule="evenodd" clip-rule="evenodd" d="M2.41 0.940007C5.23 0.790007 19.54 1.16001 20.1 1.63001C20.46 1.93001 20.64 4.80001 20.74 5.63001C20.92 7.17001 21.06 8.50001 21.14 10.06C21.1527 10.1289 21.1892 10.1912 21.2431 10.2361C21.297 10.2809 21.3649 10.3055 21.435 10.3055C21.5051 10.3055 21.573 10.2809 21.6269 10.2361C21.6808 10.1912 21.7173 10.1289 21.73 10.06C21.73 8.64001 21.64 6.97001 21.54 5.57001C21.44 4.17001 21.54 1.57001 20.79 0.890007C19.36 -0.459993 4.62 0.0700074 2.36 0.270007C2.28104 0.288441 2.21126 0.334488 2.16326 0.39984C2.11527 0.465192 2.0922 0.545547 2.09824 0.626408C2.10427 0.707268 2.13901 0.783309 2.19617 0.840814C2.25334 0.898318 2.32918 0.933498 2.41 0.940007Z" fill="white"/>
<path fill-rule="evenodd" clip-rule="evenodd" d="M3.48 3.18001C3.55083 3.25289 3.63556 3.31082 3.72917 3.35037C3.82278 3.38993 3.92337 3.41031 4.025 3.41031C4.12663 3.41031 4.22722 3.38993 4.32083 3.35037C4.41444 3.31082 4.49917 3.25289 4.57 3.18001C4.65623 3.03249 4.68553 2.85853 4.65237 2.69091C4.61922 2.52329 4.5259 2.37358 4.39 2.27001C3.71 1.88001 2.87 2.57001 3.48 3.18001Z" fill="white"/>
<path fill-rule="evenodd" clip-rule="evenodd" d="M5.82 2.94C5.89097 3.01442 5.97631 3.07367 6.07085 3.11415C6.16539 3.15463 6.26716 3.1755 6.37 3.1755C6.47284 3.1755 6.57461 3.15463 6.66915 3.11415C6.76369 3.07367 6.84903 3.01442 6.92 2.94C7.01261 2.78908 7.04549 2.60901 7.01219 2.43511C6.97889 2.26121 6.88181 2.10602 6.74 2C6.05 1.63 5.21 2.32 5.82 2.94Z" fill="white"/>
<path fill-rule="evenodd" clip-rule="evenodd" d="M8.38 2.94C8.45097 3.01442 8.53631 3.07367 8.63085 3.11415C8.72539 3.15463 8.82716 3.1755 8.93 3.1755C9.03284 3.1755 9.13461 3.15463 9.22915 3.11415C9.32369 3.07367 9.40903 3.01442 9.48 2.94C9.57494 2.78974 9.60917 2.609 9.57574 2.43443C9.54232 2.25986 9.44373 2.10455 9.3 2C8.61 1.63 7.77 2.32 8.38 2.94Z" fill="white"/>
<path fill-rule="evenodd" clip-rule="evenodd" d="M23.62 21.9C22.8553 20.5302 21.979 19.2258 21 18C24.15 13 17.54 7.85 12.58 11.66C11.5543 12.4079 10.8384 13.5058 10.5675 14.746C10.2966 15.9861 10.4896 17.2825 11.11 18.39C12.61 20.82 15.55 21.39 15.5 20.56C15.4975 20.5219 15.4874 20.4846 15.4704 20.4504C15.4535 20.4162 15.4299 20.3857 15.4011 20.3606C15.3723 20.3355 15.3388 20.3163 15.3026 20.3042C15.2664 20.2921 15.2281 20.2873 15.19 20.29C13.79 20.36 12.4 19.07 11.8 17.99C11.3435 17.0604 11.2378 15.9974 11.5024 14.9961C11.7669 13.9949 12.3839 13.1228 13.24 12.54C16.12 10.42 20.02 11.71 20.76 14.54C21.41 17.01 19.31 19.42 17.17 20.17C17.0865 20.1978 17.0174 20.2577 16.978 20.3365C16.9386 20.4153 16.9321 20.5065 16.96 20.59C16.9878 20.6735 17.0477 20.7426 17.1265 20.782C17.2053 20.8214 17.2965 20.8278 17.38 20.8C17.8062 20.6635 18.2155 20.479 18.6 20.25C18.97 20.77 19.92 22.07 20.01 22.25C22.07 25.2 24.36 24 23.62 21.9ZM22.62 22.9C21.88 23.28 19.76 20.7 19.09 19.95C19.629 19.5788 20.1107 19.1307 20.52 18.62C20.83 19.06 23.14 22.6 22.64 22.86L22.62 22.9Z" fill="white"/>
<path fill-rule="evenodd" clip-rule="evenodd" d="M12.11 8.31001C13.03 8.18001 14.11 8.97001 15.39 8.59001C16.0731 8.36743 16.795 8.28911 17.51 8.36001C17.43 8.36001 18.42 8.36001 18.37 8.03001C18.32 7.70001 17.29 7.74001 16.89 7.64001C16.6509 7.61021 16.4091 7.61021 16.17 7.64001C15.04 7.64001 15.17 8.01001 13.87 7.57001C11.39 6.74001 11.47 7.64001 10.64 7.80001C9.81 7.96001 8.53 6.89001 7.59 7.40001C7.07 7.68001 6.67 8.40001 7.17 8.52001C7.67 8.64001 7.38 8.21001 7.87 8.01001C8.36 7.81001 9.87 9.28001 11.2 8.76001C11.4812 8.56891 11.7874 8.41749 12.11 8.31001Z" fill="white"/>
<path fill-rule="evenodd" clip-rule="evenodd" d="M10.06 11.34C8 11.62 7 10.79 5.26 11C5.44 11 3.15 10.94 2.83 11.62C2.80477 11.6628 2.79054 11.7111 2.7886 11.7607C2.78665 11.8103 2.79705 11.8596 2.81885 11.9042C2.84066 11.9488 2.87319 11.9873 2.91353 12.0163C2.95387 12.0452 3.00076 12.0637 3.05 12.07C3.29 12.07 2.86 11.9 7.42 12.25H8.02C8.69817 12.2995 9.37922 12.2075 10.02 11.98C10.0877 11.9608 10.1477 11.921 10.1918 11.8663C10.236 11.8115 10.262 11.7444 10.2664 11.6742C10.2708 11.6039 10.2533 11.5341 10.2163 11.4743C10.1794 11.4144 10.1247 11.3675 10.06 11.34Z" fill="white"/>
<path fill-rule="evenodd" clip-rule="evenodd" d="M7 15.47C7.08752 15.47 7.17146 15.4352 7.23334 15.3734C7.29523 15.3115 7.33 15.2275 7.33 15.14C7.33 15.0525 7.29523 14.9685 7.23334 14.9067C7.17146 14.8448 7.08752 14.81 7 14.81C5.73853 14.7451 4.47446 14.8698 3.25 15.18C3.05 15.37 3.07 15.52 3.25 15.62C3.43 15.72 3.32 15.71 3.41 15.71C4.61062 15.8725 5.83169 15.7908 7 15.47Z" fill="white"/>
</g>
<defs>
<clipPath id="clip0_3_33">
<rect width="24" height="24" fill="white"/>
</clipPath>
</defs>
</svg>
