<svg width="24" height="24" viewBox="0 0 24 24" fill="none" xmlns="http://www.w3.org/2000/svg">
<g clip-path="url(#clip0_3_66)">
<path d="M5.81999 7.62999C6.20999 7.62999 6.60999 7.62999 6.99999 7.68999C7.66766 7.72781 8.32386 7.88002 8.93999 8.13999C9.01511 8.17725 9.10159 8.18452 9.18187 8.16032C9.26216 8.13612 9.33021 8.08227 9.37223 8.0097C9.41424 7.93714 9.42705 7.8513 9.40806 7.76963C9.38907 7.68796 9.33971 7.61658 9.26999 7.56999C8.71902 7.16936 8.09853 6.87437 7.43999 6.69999C6.8774 6.54384 6.28961 6.49967 5.70999 6.56999C5.04423 6.67304 4.39935 6.88237 3.79999 7.18999C3.72848 7.2171 3.67002 7.2705 3.63657 7.33927C3.60311 7.40804 3.59718 7.48699 3.61999 7.55999C3.6471 7.63381 3.70211 7.69404 3.77318 7.7277C3.84425 7.76137 3.9257 7.76578 3.99999 7.73999C4.60049 7.63408 5.21112 7.59718 5.81999 7.62999Z" fill="white"/>
<path d="M9.49999 10.16C8.7652 9.49366 7.82092 9.10463 6.82999 9.05999C6.5527 9.05059 6.2751 9.06397 5.99999 9.09999C5.35403 9.22103 4.72579 9.4226 4.12999 9.69999C4.06541 9.72899 4.01367 9.7806 3.98451 9.84511C3.95535 9.90961 3.9508 9.98256 3.9717 10.0502C3.99261 10.1178 4.03753 10.1755 4.098 10.2123C4.15847 10.2491 4.23032 10.2625 4.29999 10.25C4.90617 10.166 5.51828 10.1326 6.12999 10.15H7.29999C7.94519 10.1753 8.57686 10.3426 9.14999 10.64C9.18294 10.6751 9.22319 10.7027 9.2679 10.7206C9.31262 10.7385 9.36072 10.7465 9.40883 10.7438C9.45694 10.7412 9.50389 10.7281 9.54638 10.7053C9.58887 10.6826 9.62587 10.6509 9.65477 10.6123C9.68368 10.5738 9.7038 10.5294 9.71371 10.4822C9.72363 10.4351 9.7231 10.3863 9.71216 10.3394C9.70122 10.2925 9.68013 10.2485 9.65039 10.2106C9.62065 10.1727 9.58297 10.1418 9.53999 10.12L9.49999 10.16Z" fill="white"/>
<path d="M6.88 11.58C6.59441 11.5449 6.3056 11.5449 6.02 11.58C5.36935 11.6682 4.73955 11.8714 4.16 12.18C4.09178 12.2075 4.03655 12.2599 4.0055 12.3266C3.97446 12.3933 3.96991 12.4693 3.99279 12.5392C4.01567 12.6091 4.06427 12.6677 4.12873 12.7031C4.1932 12.7386 4.26872 12.7482 4.34 12.73C4.90607 12.6182 5.4848 12.5845 6.06 12.63H6.76C6.9919 12.6486 7.22237 12.682 7.45 12.73C7.9928 12.8594 8.51461 13.0648 9 13.34C9.03405 13.3652 9.07276 13.3834 9.1139 13.3935C9.15503 13.4037 9.19777 13.4055 9.23963 13.399C9.28149 13.3925 9.32165 13.3778 9.35776 13.3556C9.39387 13.3335 9.42523 13.3044 9.45 13.27C9.47633 13.235 9.4952 13.1951 9.50546 13.1525C9.51572 13.11 9.51715 13.0658 9.50965 13.0227C9.50215 12.9796 9.48589 12.9384 9.46187 12.9019C9.43785 12.8653 9.40659 12.834 9.37 12.81C8.87784 12.374 8.30788 12.0348 7.69 11.81C7.42695 11.7107 7.15599 11.6338 6.88 11.58Z" fill="white"/>
<path d="M15.52 5.67999C15.5971 6.0731 15.6505 6.47048 15.68 6.86999C15.82 8.53999 15.68 10.25 15.97 11.87C15.97 11.87 16.41 12.48 16.87 12.1C17.0865 11.921 17.2935 11.7307 17.49 11.53C17.6137 11.3658 17.7241 11.1919 17.82 11.01C17.956 10.7611 18.0763 10.504 18.18 10.24C18.4098 10.4869 18.6205 10.751 18.81 11.03C18.81 11.03 19.34 11.73 19.38 11.77C19.465 11.8712 19.581 11.9415 19.71 11.97C19.8412 12.0047 19.9807 11.9877 20.0998 11.9226C20.2189 11.8575 20.3084 11.7492 20.35 11.62C20.4144 11.4567 20.4548 11.2849 20.47 11.11V10.2L20.37 7.53999C20 3.99999 20 3.53999 19.76 3.04999C19.6715 2.87316 19.5478 2.7163 19.3965 2.58904C19.2451 2.46178 19.0694 2.36682 18.88 2.30999C18.5969 2.21531 18.2977 2.17792 18 2.19999C17.6307 2.21091 17.2629 2.25103 16.9 2.31999C16.8 2.31999 14.76 2.78999 14.57 2.90999C14.5373 2.92858 14.5088 2.95354 14.486 2.9834C14.4632 3.01326 14.4466 3.0474 14.4373 3.08379C14.428 3.12018 14.426 3.15807 14.4317 3.19521C14.4373 3.23236 14.4503 3.26799 14.47 3.29999C14.8921 4.0595 15.2436 4.85618 15.52 5.67999ZM15.26 3.36999L17 2.99999C17.333 2.97947 17.667 2.97947 18 2.99999C18.1908 2.99147 18.3814 3.0221 18.56 3.08999C18.6495 3.11844 18.7321 3.16511 18.8027 3.22707C18.8733 3.28903 18.9302 3.36493 18.97 3.44999C19.0797 3.82657 19.1303 4.2179 19.12 4.60999L19.33 7.65999V9.99999C19.1908 9.81759 19.0405 9.64393 18.88 9.47999C18.6557 9.25952 18.3995 9.07411 18.12 8.92999C18.0448 8.89509 17.9629 8.877 17.88 8.877C17.7971 8.877 17.7152 8.89509 17.64 8.92999C17.5326 8.96948 17.4412 9.04329 17.38 9.13999C17.3393 9.24764 17.3059 9.35789 17.28 9.46999L17.13 9.86999C17.05 10.06 16.97 10.26 16.88 10.45L16.74 10.71C16.57 9.42999 16.57 8.10999 16.39 6.81999C16.339 6.39168 16.2589 5.96736 16.15 5.54999C16.0563 5.18247 15.9291 4.82431 15.77 4.47999C15.6 4.11999 15.4 3.75999 15.19 3.40999L15.26 3.36999Z" fill="white"/>
<path d="M23.89 10.25C23.78 9.24999 23.61 8.24999 23.46 7.32999C23.3681 6.61138 23.2142 5.90207 23 5.20999C22.8899 4.83234 22.6578 4.50179 22.34 4.26999C21.9729 4.06289 21.5685 3.93035 21.15 3.87999C21.0801 3.87614 21.0099 3.87614 20.94 3.87999C20.29 3.87999 20.38 4.49999 20.94 4.60999H21.01C21.3162 4.66576 21.6084 4.78129 21.87 4.94999C22.0667 5.1769 22.1858 5.46068 22.21 5.75999C22.33 6.37999 22.34 7.08999 22.39 7.52999C22.52 8.39999 22.65 9.37999 22.78 10.39C22.91 11.4 23.01 12.29 23.04 13.24C23.0844 14.1996 23.0308 15.1613 22.88 16.11C21.7399 15.7299 20.541 15.5572 19.34 15.6C18.0939 15.6382 16.8575 15.8331 15.66 16.18C15.2806 16.2877 14.9174 16.4457 14.58 16.65C14.1498 16.9116 13.7358 17.1988 13.34 17.51L13.03 17.71C13.03 16.83 13.11 15.71 13.1 14.6V13.09C13.1 12.58 13.02 12.09 12.96 11.59C12.8 10.27 12.55 9.03999 12.35 8.12999C12.3503 8.08751 12.3406 8.04555 12.3217 8.00752C12.3028 7.96949 12.2751 7.93646 12.241 7.91113C12.2069 7.88579 12.1673 7.86886 12.1254 7.86172C12.0836 7.85457 12.0406 7.8574 12 7.86999C11.9631 7.87489 11.9275 7.8871 11.8953 7.90591C11.8632 7.92473 11.8351 7.94977 11.8128 7.97957C11.7904 8.00937 11.7742 8.04333 11.7652 8.07946C11.7561 8.1156 11.7544 8.15317 11.76 8.18999C11.84 9.10999 11.85 10.34 11.9 11.66C11.9 12.14 11.9 12.66 11.98 13.14C12.06 13.62 12.05 14.14 12.1 14.63C12.19 15.7 12.29 16.7 12.35 17.54C12.11 17.37 11.83 17.17 11.46 16.95C11.0785 16.7184 10.6808 16.5145 10.27 16.34C8.8482 15.7367 7.29506 15.5094 5.76 15.68C4.38901 15.8593 3.067 16.3079 1.87 17C1.97415 16.1307 2.01759 15.2553 2 14.38C1.98325 13.4079 1.89299 12.4385 1.73 11.48L1.11 6.99999C1.11 6.79999 1.22 6.66999 1.38 6.54999C1.64752 6.36507 1.94061 6.22021 2.25 6.11999C3.74866 5.55163 5.3372 5.25695 6.94 5.24999C8.54758 5.27029 10.1351 5.61022 11.61 6.24999C11.6882 6.2858 11.7775 6.28906 11.8581 6.25905C11.9388 6.22904 12.0042 6.16823 12.04 6.08999C12.0758 6.01175 12.0791 5.9225 12.0491 5.84186C12.019 5.76122 11.9582 5.6958 11.88 5.65999C10.3601 4.89248 8.69954 4.44331 7 4.33999C5.28 4.26416 3.56088 4.5083 1.93 5.05999C1.40449 5.21607 0.919714 5.48577 0.509999 5.84999C0.320133 6.00657 0.173564 6.2092 0.0842815 6.43853C-0.00500128 6.66787 -0.0340186 6.91626 -1.0645e-06 7.15999C-1.0645e-06 7.36999 0.179999 8.35999 0.359999 9.39999C0.509999 10.26 0.679999 11.14 0.809999 11.67C1.01862 12.5753 1.16232 13.4943 1.24 14.42C1.31 15.37 1.24 17.55 1.24 17.62C1.2004 18.0226 1.29535 18.427 1.51 18.77C1.62846 18.9514 1.78607 19.1039 1.97123 19.2164C2.1564 19.3289 2.36442 19.3985 2.58 19.42C2.81167 19.4593 3.04833 19.4593 3.28 19.42C3.72 19.33 4.19 19.13 4.59 19.07C5.14436 19.0079 5.70238 18.9845 6.26 19C6.80478 19.0037 7.3477 19.064 7.88 19.18C8.78908 19.3044 9.61402 19.7778 10.18 20.5C10.4653 20.9215 10.8285 21.2847 11.25 21.57C11.6652 21.787 12.1327 21.884 12.6 21.85C13.2112 21.8543 13.8135 21.7028 14.35 21.41C15.0108 20.934 15.6237 20.3948 16.18 19.8C16.3932 19.6084 16.641 19.459 16.91 19.36C17.3616 19.1788 17.8308 19.0447 18.31 18.96C18.7937 18.858 19.2858 18.8011 19.78 18.79C20.2732 18.7827 20.7658 18.8263 21.25 18.92C21.34 18.92 21.99 19.17 22.25 19.21C22.3253 19.2252 22.4031 19.2233 22.4776 19.2042C22.5521 19.1852 22.6212 19.1495 22.68 19.1C22.8955 18.8603 23.0499 18.5722 23.13 18.26C23.5331 16.6159 23.8171 14.9449 23.98 13.26C24.0122 12.2558 23.9821 11.2505 23.89 10.25ZM22.48 18C22.4422 18.112 22.3919 18.2193 22.33 18.32C22.0407 18.1992 21.733 18.1282 21.42 18.11C20.8828 17.9793 20.3328 17.9088 19.78 17.9C19.2312 17.8916 18.6827 17.9284 18.14 18.01C17.6002 18.0914 17.0683 18.2185 16.55 18.39C16.1843 18.5304 15.8459 18.7334 15.55 18.99C15.0272 19.5165 14.4583 19.9951 13.85 20.42C13.4678 20.62 13.0412 20.7198 12.61 20.71C11.72 20.71 11.51 20.31 11.14 19.86C10.7903 19.3891 10.3392 19.0029 9.82 18.73C9.28378 18.4547 8.70616 18.2689 8.11 18.18C7.51132 18.0882 6.90515 18.0547 6.3 18.08C5.6993 18.0967 5.10083 18.1603 4.51 18.27C4.1 18.35 3.63 18.58 3.18 18.7C3.03061 18.7433 2.87549 18.7635 2.72 18.76C2.59695 18.7558 2.47642 18.724 2.36736 18.6668C2.2583 18.6097 2.1635 18.5288 2.09 18.43C1.94775 18.2135 1.87452 17.959 1.88 17.7C3.1139 17.0274 4.47815 16.6284 5.88 16.53C7.25937 16.4563 8.63506 16.7315 9.88 17.33C10.7218 17.7617 11.5336 18.2494 12.31 18.79C12.4923 18.8817 12.6969 18.9198 12.9 18.9C13.2168 18.8608 13.5191 18.744 13.78 18.56C14.4419 17.9691 15.1906 17.4834 16 17.12C17.1105 16.7458 18.2622 16.5074 19.43 16.41C20.5536 16.3027 21.6873 16.4113 22.77 16.73C22.72 16.8 22.57 17.72 22.48 18Z" fill="white"/>
<path d="M12.65 6.19C13.0339 6.00003 13.4317 5.83957 13.84 5.71L14.4 5.48C14.5031 5.42682 14.5859 5.34129 14.6357 5.23653C14.6855 5.13177 14.6995 5.01357 14.6757 4.90004C14.6519 4.78652 14.5914 4.68396 14.5037 4.60808C14.416 4.53221 14.3058 4.48721 14.19 4.48C13.8296 4.53193 13.4868 4.66906 13.19 4.88C12.8349 5.13355 12.5212 5.44051 12.26 5.79C12.2086 5.84392 12.18 5.91553 12.18 5.99C12.18 6.06446 12.2086 6.13607 12.26 6.19C12.3122 6.2407 12.3822 6.26906 12.455 6.26906C12.5278 6.26906 12.5977 6.2407 12.65 6.19Z" fill="white"/>
</g>
<defs>
<clipPath id="clip0_3_66">
<rect width="24" height="24" fill="white"/>
</clipPath>
</defs>
</svg>
