<svg width="24" height="24" viewBox="0 0 24 24" fill="none" xmlns="http://www.w3.org/2000/svg">
<g clip-path="url(#clip0_3_85)">
<path d="M7.59 1.73001C7.55023 1.72861 7.5106 1.73541 7.47357 1.75C7.43654 1.76458 7.40291 1.78663 7.37476 1.81477C7.34662 1.84291 7.32458 1.87654 7.30999 1.91357C7.29541 1.9506 7.28861 1.99023 7.29 2.03001C7.29 2.87001 7.13 3.72001 7.13 4.56001C7.13 5.14001 7.21001 5.70001 7.26 6.27001C7.27392 6.35143 7.31618 6.42531 7.37932 6.47858C7.44246 6.53184 7.5224 6.56106 7.605 6.56106C7.68761 6.56106 7.76755 6.53184 7.83069 6.47858C7.89383 6.42531 7.93609 6.35143 7.95 6.27001C8 5.55001 8 4.85001 8 4.15001C8 3.45001 8 2.73001 7.9 2.00001C7.89024 1.9249 7.85331 1.85597 7.7962 1.80623C7.73909 1.75649 7.66574 1.72937 7.59 1.73001Z" fill="white"/>
<path d="M23.8 10C23.7306 8.9862 23.5631 7.98152 23.3 7C23.2089 6.67462 23.0636 6.36695 22.87 6.09C22.6073 5.70567 22.3165 5.34134 22 5C21.21 4.11 20.46 3 19.6 2.1C19.0155 1.43313 18.3097 0.883381 17.52 0.48C16.6976 0.257609 15.8517 0.133411 15 0.11C13.86 0 12.47 0 11.47 0L6.65 0.15C5.65 0.21 4.74 0.21 3.79 0.26C3.39 0.26 2.97 0.32 2.55 0.38C2.50523 0.384953 2.46189 0.398754 2.4225 0.420601C2.3831 0.442447 2.34844 0.471904 2.32053 0.507259C2.29262 0.542614 2.27201 0.583164 2.2599 0.626552C2.2478 0.669939 2.24443 0.715301 2.25 0.76C2.2648 0.85016 2.31333 0.931319 2.38575 0.987026C2.45817 1.04273 2.54906 1.06882 2.64 1.06C3 1 3.44 1 3.83 1L6.69 0.89L11.49 0.82C12.49 0.82 13.82 0.87 14.97 0.97C15.07 0.97 17.04 1.23 17.14 1.28C17.8446 1.64374 18.4753 2.13545 19 2.73C19.84 3.65 20.56 4.73 21.33 5.65C21.5993 5.94744 21.8498 6.26138 22.08 6.59C22.2106 6.78266 22.3086 6.9955 22.37 7.22C22.6021 8.15075 22.7427 9.10192 22.79 10.06C22.89 11.54 22.79 13.06 22.79 14.46V19.69C22.7834 20.2104 22.7298 20.7292 22.63 21.24C22.5889 21.467 22.5218 21.6884 22.43 21.9C22.38 22.02 22.33 22.14 22.23 22.17C21.4645 22.3756 20.6808 22.5062 19.89 22.56C20.1086 21.7229 20.236 20.8645 20.27 20C20.41 18.42 20.34 16.79 20.36 15.28C20.4323 14.4894 20.402 13.6928 20.27 12.91C20.1709 12.4763 19.9188 12.0929 19.56 11.83C19.3271 11.669 19.0658 11.5537 18.79 11.49C18.2642 11.3951 17.7333 11.3317 17.2 11.3C16.4262 11.2138 15.6485 11.1671 14.87 11.16C13.72 11.16 12.58 11.16 11.42 11.21C10.42 11.21 9.42 11.21 8.42 11.27C7.75 11.27 7.07 11.34 6.42 11.42C5.91517 11.4507 5.41538 11.5379 4.93 11.68C4.66409 11.7816 4.42474 11.9424 4.23 12.15C3.9752 12.4665 3.81257 12.8471 3.76 13.25C3.69979 14.0021 3.69979 14.7579 3.76 15.51C3.76 16.51 3.76 17.51 3.84 18.51C3.89 19.84 3.96 21.16 4.03 22.51L1.63 22.21C1.63 22.21 1.08 18.53 1.06 17.74C0.930003 14.27 0.850003 11.15 0.940003 8C0.990003 5.88 1.12 3.76 1.35 1.52C1.3546 1.4806 1.35139 1.44069 1.34056 1.40253C1.32973 1.36437 1.31149 1.32872 1.28688 1.29762C1.26228 1.26651 1.23178 1.24055 1.19714 1.22123C1.1625 1.20191 1.1244 1.1896 1.085 1.185C1.04561 1.1804 1.00569 1.18361 0.967534 1.19444C0.929377 1.20527 0.893727 1.22351 0.86262 1.24812C0.831512 1.27273 0.805556 1.30322 0.786233 1.33786C0.76691 1.3725 0.754599 1.4106 0.750003 1.45C0.480003 3.72 0.320003 5.85 0.230003 8C0.0900028 11.16 0.110003 14.3 0.170003 17.81C0.202 19.1801 0.325609 20.5464 0.540003 21.9C0.58286 22.292 0.716384 22.6686 0.930003 23C1.0291 23.1164 1.16828 23.1913 1.32 23.21C2.32 23.35 4.47 23.71 6.94 23.9C8.20711 24.0052 9.47879 24.0453 10.75 24.02C13.84 23.92 16.65 23.96 18.9 23.82C20.1086 23.784 21.3094 23.6129 22.48 23.31C22.7193 23.2203 22.9343 23.076 23.108 22.8885C23.2816 22.701 23.409 22.4755 23.48 22.23C23.7277 21.4299 23.8557 20.5976 23.86 19.76V14.48C23.88 13 23.91 11.5 23.8 10ZM19.49 20C19.4542 20.9007 19.3099 21.7939 19.06 22.66H18.83C16.59 22.79 13.83 22.78 10.71 22.88C9.49 22.93 8.22 22.88 7.01 22.82C6.18 22.76 5.39 22.69 4.66 22.61V19.3V15.55V13.72C4.67049 13.4126 4.77522 13.1159 4.96 12.87C5.08334 12.759 5.23615 12.6861 5.4 12.66C5.76659 12.593 6.13757 12.5529 6.51 12.54C6.99 12.54 7.51 12.47 7.96 12.45H11.42C12.58 12.45 13.69 12.38 14.83 12.38C15.5713 12.3734 16.3123 12.4068 17.05 12.48C17.43 12.48 17.9 12.48 18.34 12.57C18.5546 12.5891 18.7625 12.6539 18.95 12.76C19.1699 12.9549 19.306 13.2272 19.33 13.52C19.4053 14.1336 19.4287 14.7525 19.4 15.37C19.46 16.79 19.58 18.39 19.49 20Z" fill="white"/>
<path d="M3.66001 7.16C3.67095 7.43631 3.76121 7.70362 3.92001 7.93C4.11724 8.17853 4.37569 8.3715 4.67001 8.49C5.03587 8.63171 5.41945 8.72255 5.81001 8.76C6.18001 8.81 6.56001 8.83 6.93001 8.85H9.44001C10.44 8.85 11.44 8.94 12.38 8.92C13.03 8.92 13.69 8.86 14.38 8.79C14.8237 8.77339 15.2652 8.71987 15.7 8.63C15.991 8.55826 16.2465 8.38436 16.42 8.14C16.737 7.57666 16.9152 6.94592 16.94 6.3C16.9737 5.43607 16.9503 4.57085 16.87 3.71C16.87 3.17 16.87 2.62 16.79 2.07C16.71 1.52 16.15 1.51 16.06 2.07V3.69C16.109 4.51594 16.109 5.34406 16.06 6.17C16.0252 6.6599 15.8707 7.13377 15.61 7.55C15.54 7.66 15.36 7.63 15.18 7.65C15 7.67 14.51 7.65 14.31 7.65C13.68 7.65 13.05 7.71 12.43 7.71C11.43 7.71 10.52 7.71 9.56001 7.62H5.98001C5.73376 7.60638 5.48934 7.56955 5.25001 7.51C5.0676 7.4733 4.9004 7.38273 4.77001 7.25C4.69489 7.13035 4.65664 6.99124 4.66001 6.85V5.77C4.61008 4.91072 4.61008 4.04928 4.66001 3.19C4.66001 2.81 4.72001 2.42 4.77001 2.04C4.77001 1.23 4.18001 1.04 4.08001 2.04C4.0113 2.40091 3.95792 2.76457 3.92001 3.13C3.8139 4.00947 3.75715 4.89419 3.75001 5.78C3.68963 6.23751 3.65956 6.69852 3.66001 7.16Z" fill="white"/>
</g>
<defs>
<clipPath id="clip0_3_85">
<rect width="24" height="24" fill="white"/>
</clipPath>
</defs>
</svg>
