<svg width="24" height="24" viewBox="0 0 24 24" fill="none" xmlns="http://www.w3.org/2000/svg">
<g clip-path="url(#clip0_3_52)">
<path fill-rule="evenodd" clip-rule="evenodd" d="M20.74 0.439993C20.4709 0.59504 20.2223 0.78317 20 0.999993C19.9392 1.0475 19.899 1.11661 19.8878 1.19297C19.8767 1.26933 19.8953 1.34705 19.94 1.40999C20.18 1.72999 20.44 1.34999 20.94 1.16999C21.79 0.839993 23 1.99999 23 2.46999C23.012 3.03221 22.8121 3.57837 22.44 3.99999C22.53 3.99999 20.44 2.41999 19.85 1.82999C19.8193 1.79885 19.7827 1.77412 19.7424 1.75724C19.702 1.74036 19.6587 1.73167 19.615 1.73167C19.5713 1.73167 19.528 1.74036 19.4876 1.75724C19.4473 1.77412 19.4107 1.79885 19.38 1.82999C18.98 2.23999 19.67 2.46999 21.84 4.56999C21.52 5.03999 21.44 5.05999 17.89 8.71999C17.6921 8.26112 17.403 7.84723 17.0403 7.50344C16.6776 7.15964 16.2488 6.89311 15.78 6.71999C16.91 5.31999 19.09 2.80999 19 2.91999C19.034 2.8562 19.0437 2.7823 19.0276 2.71186C19.0114 2.64143 18.9703 2.57921 18.9119 2.53663C18.8535 2.49406 18.7817 2.47399 18.7097 2.48012C18.6377 2.48624 18.5704 2.51816 18.52 2.56999C15.65 5.56999 14.04 7.16999 13.98 7.66999C13.74 9.82999 13.58 10.83 13.89 11.16C14.49 11.81 16.89 11.08 17.4 10.76C19.6172 8.57027 21.682 6.23148 23.58 3.75999C25 1.46999 22.36 -0.420007 20.74 0.439993ZM16.8 9.80999C16.1669 10.0935 15.491 10.2692 14.8 10.33C14.8 8.60999 14.99 7.89999 14.91 7.86999C14.83 7.83999 15.03 7.66999 15.15 7.50999L15.31 7.29999C15.8999 8.03922 16.5708 8.71006 17.31 9.29999C17.1497 9.4794 16.9794 9.64967 16.8 9.80999Z" fill="white"/>
<path fill-rule="evenodd" clip-rule="evenodd" d="M5.76 11.45C5.88339 11.2666 5.93145 11.0428 5.89421 10.825C5.85697 10.6071 5.73729 10.412 5.56 10.28C5.39689 10.1474 5.18779 10.085 4.97868 10.1066C4.76958 10.1281 4.57761 10.2319 4.445 10.395C4.31239 10.5581 4.25001 10.7672 4.27158 10.9763C4.29314 11.1854 4.39689 11.3774 4.56 11.51C4.94 11.94 5.4 11.84 5.76 11.45Z" fill="white"/>
<path fill-rule="evenodd" clip-rule="evenodd" d="M4.59 16.4C4.93 16.82 5.4 16.72 5.75 16.34C5.87749 16.157 5.92893 15.9317 5.89348 15.7116C5.85804 15.4914 5.73847 15.2937 5.56 15.16C5.39433 15.0517 5.19403 15.0095 4.99874 15.0418C4.80346 15.0741 4.62741 15.1786 4.50545 15.3345C4.3835 15.4904 4.32451 15.6864 4.34017 15.8837C4.35582 16.081 4.44498 16.2653 4.59 16.4Z" fill="white"/>
<path fill-rule="evenodd" clip-rule="evenodd" d="M4.69 21C5.04 21.43 5.5 21.33 5.86 20.94C5.98339 20.7566 6.03145 20.5328 5.99421 20.315C5.95697 20.0971 5.83729 19.902 5.66 19.77C5.4953 19.672 5.3006 19.6372 5.11216 19.6721C4.92372 19.707 4.75439 19.8092 4.63572 19.9597C4.51704 20.1102 4.45712 20.2987 4.46711 20.4901C4.47709 20.6814 4.55631 20.8627 4.69 21Z" fill="white"/>
<path fill-rule="evenodd" clip-rule="evenodd" d="M3.23 11.67C3.35286 11.4838 3.3976 11.2568 3.35457 11.0379C3.31154 10.819 3.18419 10.6258 3 10.5C2.83689 10.3674 2.62779 10.305 2.41868 10.3266C2.20958 10.3481 2.01761 10.4519 1.885 10.615C1.75239 10.7781 1.69001 10.9872 1.71158 11.1963C1.73314 11.4054 1.83689 11.5974 2 11.73C2.41 12.16 2.87 12.06 3.23 11.67Z" fill="white"/>
<path fill-rule="evenodd" clip-rule="evenodd" d="M2.17 16.37C2.52 16.8 2.98 16.7 3.34 16.32C3.46398 16.1351 3.51234 15.9097 3.47514 15.6901C3.43793 15.4706 3.31799 15.2737 3.14 15.14C2.9753 15.042 2.7806 15.0072 2.59216 15.0421C2.40372 15.077 2.23439 15.1792 2.11572 15.3297C1.99704 15.4802 1.93712 15.6687 1.94711 15.8601C1.95709 16.0515 2.03631 16.2327 2.17 16.37Z" fill="white"/>
<path fill-rule="evenodd" clip-rule="evenodd" d="M2.28 21C2.62 21.42 3.09 21.33 3.44 20.94C3.56748 20.7571 3.61893 20.5317 3.58348 20.3116C3.54803 20.0914 3.42847 19.8937 3.25 19.76C3.08433 19.6517 2.88403 19.6095 2.68874 19.6418C2.49345 19.6741 2.31741 19.7786 2.19545 19.9345C2.0735 20.0904 2.01451 20.2864 2.03016 20.4837C2.04582 20.681 2.13498 20.8653 2.28 21Z" fill="white"/>
<path fill-rule="evenodd" clip-rule="evenodd" d="M14.77 13.37C14.44 19.6 14.4 21.65 13.93 22.09C13.4967 22.3955 12.9957 22.5912 12.47 22.66C11.86 22.75 11.96 22.72 4.38 22.61C3.9 22.61 1.63 22.73 1.38 22.21C0.96 21.41 1 19.08 0.98 18.21C1.25968 18.2289 1.54032 18.2289 1.82 18.21C4.35506 18.5839 6.92105 18.7045 9.48 18.57C10.64 18.48 13.79 18.33 14.06 17.94C14.2 17.74 14.19 17.58 13.97 17.45C13.4252 17.4016 12.8762 17.4319 12.34 17.54C10.11 17.54 3.26 17.42 1.04 17.6C0.94 17.6 0.98 18.17 0.87 10.96C0.87 9.71999 1.03 9.73999 0.87 9.56999C0.820339 9.53022 0.758618 9.50856 0.695 9.50856C0.631383 9.50856 0.569661 9.53022 0.52 9.56999C0.25 9.76999 0.31 9.96999 0.0600001 19.92C0.0183325 20.8718 0.14702 21.8234 0.44 22.73C1 23.9 3.16 23.8 4.44 23.8C11.81 23.8 12.15 23.8 12.97 23.66C13.6429 23.5146 14.2624 23.1858 14.76 22.71C15.49 21.84 15.35 19.61 15.5 13.43C15.508 13.3332 15.4771 13.2372 15.4143 13.1631C15.3515 13.089 15.2618 13.0429 15.165 13.035C15.0682 13.027 14.9722 13.0579 14.8981 13.1207C14.824 13.1835 14.778 13.2732 14.77 13.37Z" fill="white"/>
<path fill-rule="evenodd" clip-rule="evenodd" d="M1.86 9.10999C4.92596 9.25492 7.99855 9.1613 11.05 8.82999C11.0933 8.838 11.1378 8.83638 11.1804 8.82525C11.223 8.81412 11.2626 8.79376 11.2964 8.7656C11.3303 8.73745 11.3575 8.7022 11.3762 8.66234C11.3949 8.62249 11.4045 8.57901 11.4045 8.53499C11.4045 8.49098 11.3949 8.4475 11.3762 8.40764C11.3575 8.36779 11.3303 8.33254 11.2964 8.30438C11.2626 8.27623 11.223 8.25586 11.1804 8.24474C11.1378 8.23361 11.0933 8.23199 11.05 8.23999C9.52078 8.0529 7.98038 7.97271 6.44 7.99999C4.51 8.05999 1.97 8.39999 1.86 8.40999C1.76717 8.40999 1.67815 8.44687 1.61251 8.51251C1.54688 8.57814 1.51 8.66717 1.51 8.75999C1.51 8.85282 1.54688 8.94184 1.61251 9.00748C1.67815 9.07312 1.76717 9.10999 1.86 9.10999Z" fill="white"/>
<path fill-rule="evenodd" clip-rule="evenodd" d="M7.41 12.86C6.41 12.86 2.5 12.92 2.15 12.99C2.07932 12.9821 2.00815 12.9997 1.94919 13.0394C1.89022 13.0792 1.8473 13.1386 1.82808 13.2071C1.80887 13.2756 1.81459 13.3486 1.84425 13.4133C1.87391 13.4779 1.92556 13.5299 1.99 13.56C2.07 13.56 5.72 14.01 7.41 14C9.53 14 11.41 13.8 12.83 13.67C12.9089 13.6563 12.9805 13.6152 13.0321 13.5539C13.0836 13.4926 13.1119 13.4151 13.1119 13.335C13.1119 13.2549 13.0836 13.1774 13.0321 13.1161C12.9805 13.0548 12.9089 13.0137 12.83 13C12.83 13 8.32 12.87 7.41 12.86Z" fill="white"/>
</g>
<defs>
<clipPath id="clip0_3_52">
<rect width="24" height="24" fill="white"/>
</clipPath>
</defs>
</svg>
