<svg width="24" height="24" viewBox="0 0 24 24" fill="none" xmlns="http://www.w3.org/2000/svg">
<g clip-path="url(#clip0_3_108)">
<path d="M8.61 10.74C8.93646 10.5546 9.22181 10.3047 9.44873 10.0056C9.67564 9.70649 9.83938 9.36436 9.93 9.00001C10.0221 8.65246 10.0431 8.28987 9.99162 7.93402C9.94017 7.57816 9.81738 7.23636 9.6306 6.92912C9.44383 6.62187 9.19693 6.35552 8.9047 6.14604C8.61247 5.93655 8.28094 5.78824 7.93 5.71001C7.5112 5.59414 7.0688 5.59414 6.65 5.71001C6.2086 5.82432 5.79907 6.03773 5.45251 6.33403C5.10596 6.63034 4.8315 7.00174 4.65 7.42001C4.45312 7.87123 4.39271 8.37023 4.47623 8.85539C4.55976 9.34055 4.78356 9.79062 5.12 10.15C5.57168 10.5956 6.14027 10.9041 6.76 11.04C7.39268 11.1659 8.04954 11.0594 8.61 10.74ZM5.61 7.74001C5.71166 7.44525 5.87739 7.17669 6.09525 6.95363C6.31312 6.73058 6.57771 6.55858 6.87 6.45001C7.21566 6.32473 7.59434 6.32473 7.94 6.45001C8.18511 6.4922 8.41712 6.5906 8.61783 6.73749C8.81853 6.88439 8.98247 7.07579 9.09679 7.29668C9.21111 7.51756 9.2727 7.76193 9.27672 8.01062C9.28075 8.2593 9.22711 8.50554 9.12 8.73001C9.04436 8.97798 8.91577 9.20655 8.74311 9.39993C8.57045 9.59331 8.35785 9.74688 8.12 9.85002C7.75797 9.9767 7.36423 9.98021 7 9.86001C6.59861 9.76031 6.23208 9.55285 5.94 9.26002C5.74839 9.0607 5.61822 8.81044 5.56502 8.53913C5.51182 8.26782 5.53785 7.98693 5.64 7.73001L5.61 7.74001Z" fill="white"/>
<path d="M7.68 17.17C7.9279 17.2136 8.17848 17.2403 8.43 17.25C8.58508 17.2603 8.74077 17.2434 8.89 17.2C9.09703 17.143 9.28185 17.0244 9.42 16.86C9.61703 16.6049 9.75994 16.3122 9.84 16C9.96 15.6 9.96 15.16 10.08 14.77C10.1123 14.6188 10.1974 14.4841 10.32 14.39C10.3751 14.3403 10.4402 14.303 10.5109 14.2806C10.5816 14.2582 10.6563 14.2512 10.73 14.26C11.1931 14.4572 11.6758 14.6047 12.17 14.7C12.4484 14.6923 12.7189 14.6056 12.95 14.45C13.29 14.1939 13.6048 13.906 13.89 13.59C14.0844 13.4142 14.2649 13.2236 14.43 13.02C14.5483 12.8645 14.6273 12.6826 14.66 12.49C14.6871 12.307 14.6628 12.1201 14.59 11.95C14.4814 11.6978 14.3329 11.4648 14.15 11.26C13.9249 10.9917 13.7241 10.7039 13.55 10.4C13.4852 10.3121 13.4416 10.2104 13.4225 10.1029C13.4034 9.99533 13.4094 9.88485 13.44 9.78C13.5358 9.58649 13.6722 9.41594 13.84 9.28C14.0295 9.12449 14.2378 8.99346 14.46 8.89C14.62 8.81 14.84 8.77 15.02 8.68C15.1729 8.61384 15.3045 8.50652 15.4 8.37C15.5257 8.1924 15.6047 7.9861 15.63 7.77C15.6602 7.53095 15.6602 7.28905 15.63 7.05L15.49 6.2C15.49 6 15.43 5.75 15.38 5.53C15.3549 5.39782 15.3111 5.26987 15.25 5.15C15.1453 4.95015 14.9762 4.79157 14.77 4.7C14.472 4.58926 14.1578 4.52844 13.84 4.52C13.6164 4.49857 13.3991 4.43405 13.2 4.33C13.0198 4.2633 12.8609 4.14931 12.74 4C12.6753 3.85063 12.6514 3.68677 12.6707 3.52514C12.6901 3.36352 12.7519 3.20991 12.85 3.08C13.0485 2.77553 13.1877 2.43622 13.26 2.08C13.2881 1.82865 13.2354 1.57488 13.1095 1.35551C12.9837 1.13614 12.7912 0.962578 12.56 0.860003C12.181 0.631301 11.7787 0.443578 11.36 0.300003C11.1213 0.207571 10.8617 0.183335 10.61 0.230003C9.88 0.450003 9.52 1.23 8.92 1.59C8.73769 1.70226 8.52224 1.74818 8.31 1.72C8.14144 1.70282 7.98156 1.63678 7.85 1.53C7.7101 1.40834 7.59763 1.25837 7.52 1.09C7.52 0.970003 7.43 0.720003 7.35 0.560003C7.31503 0.455619 7.25291 0.362427 7.17 0.290003C6.96033 0.142127 6.7059 0.0714534 6.45 0.0900032C5.86401 0.173084 5.29413 0.345062 4.76 0.600003C4.54583 0.674131 4.35703 0.807393 4.21545 0.984365C4.07387 1.16134 3.98531 1.37479 3.96 1.6C3.95171 2.02704 3.99536 2.4535 4.09 2.87C4.13385 3.01183 4.14312 3.16209 4.11702 3.30822C4.09093 3.45436 4.03023 3.59212 3.94 3.71C3.65 4.02 3.32 3.93 3 3.83C2.67908 3.70689 2.34246 3.62946 2 3.6C1.84307 3.59844 1.68797 3.63383 1.54726 3.70332C1.40654 3.77281 1.28416 3.87445 1.19 4C0.806891 4.43484 0.520567 4.94614 0.350001 5.5C0.26976 5.72052 0.236323 5.95533 0.251818 6.18948C0.267313 6.42363 0.331401 6.65198 0.440001 6.86C0.780001 7.37 1.32 7.64 1.67 8.1C1.77398 8.23803 1.84264 8.39938 1.87 8.57C1.88929 8.67792 1.88402 8.78879 1.85459 8.8944C1.82516 9 1.77232 9.09762 1.7 9.18C1.38959 9.50453 1.05532 9.80537 0.700001 10.08C0.35587 10.3505 0.109965 10.7263 5.99772e-07 11.15C-0.0448945 11.4034 -0.0135719 11.6644 0.0900006 11.9C0.288231 12.2718 0.544824 12.6095 0.850001 12.9C1.16214 13.314 1.49594 13.7112 1.85 14.09C2.08814 14.3241 2.39134 14.4809 2.72 14.54C3.30658 14.4847 3.88614 14.3708 4.45 14.2C4.56685 14.1611 4.69315 14.1611 4.81 14.2C4.87296 14.235 4.92722 14.2838 4.96877 14.3426C5.01031 14.4015 5.03808 14.469 5.05 14.54C5.08457 15.0453 5.1889 15.5433 5.36 16.02C5.57231 16.3658 5.89189 16.6327 6.27 16.78C6.72126 16.9701 7.19518 17.1012 7.68 17.17ZM6.12 14.05C5.97541 13.7208 5.72088 13.4522 5.4 13.29C5.09256 13.1305 4.74187 13.0744 4.4 13.13C3.9 13.2 3.4 13.53 2.9 13.49C2.77 13.49 2.64 13.34 2.5 13.2C2.15 12.86 1.82 12.41 1.63 12.2C1.46136 12.0379 1.30431 11.8641 1.16 11.68C1.08 11.56 0.990001 11.44 1.02 11.32C1.09444 11.0356 1.26827 10.7873 1.51 10.62C1.87465 10.3567 2.20991 10.055 2.51 9.72C2.65915 9.53633 2.76456 9.32115 2.81827 9.09073C2.87198 8.86031 2.87257 8.62069 2.82 8.39C2.76703 8.07429 2.6326 7.77786 2.43 7.53C2 7.12 1.47 6.88 1.14 6.39C0.990001 6.18 1.08 5.83 1.2 5.49C1.32173 5.12632 1.50805 4.78756 1.75 4.49C1.91 4.32 2.11 4.37 2.32 4.42C2.66989 4.54218 3.03201 4.626 3.4 4.67C3.59873 4.68022 3.79711 4.64397 3.97937 4.56412C4.16164 4.48427 4.32278 4.36302 4.45 4.21C4.59199 4.04562 4.69607 3.85201 4.75483 3.64289C4.81359 3.43377 4.82559 3.21428 4.79 3C4.68312 2.56738 4.61948 2.12521 4.6 1.68C4.61137 1.56459 4.65488 1.45468 4.72559 1.36276C4.7963 1.27084 4.89137 1.2006 5 1.16C5.44137 0.996294 5.89653 0.872466 6.36 0.790003C6.47119 0.758843 6.58881 0.758843 6.7 0.790003C6.71511 0.96657 6.7698 1.13747 6.86 1.29C6.97334 1.56809 7.15165 1.81498 7.38 2.01C7.61588 2.21585 7.9089 2.34492 8.22 2.38C8.60125 2.44464 8.99294 2.3663 9.32 2.16C9.86 1.83 10.17 1.11 10.83 0.930003C10.95 0.930003 11.17 1.01 11.4 1.11C11.646 1.21834 11.8834 1.34538 12.11 1.49C12.33 1.64 12.43 1.75 12.41 1.9C12.3015 2.25051 12.1504 2.58635 11.96 2.9C11.8313 3.13626 11.7639 3.40099 11.7639 3.67C11.7639 3.93902 11.8313 4.20375 11.96 4.44C12.1127 4.6997 12.3253 4.91913 12.58 5.08C12.9312 5.29405 13.3226 5.43361 13.73 5.49L14.37 5.6L14.52 6.43L14.62 7.18C14.6302 7.31982 14.6302 7.46019 14.62 7.6C14.6153 7.67033 14.5947 7.73868 14.56 7.8L14 8C13.6331 8.16437 13.2954 8.38727 13 8.66C12.7837 8.86434 12.6044 9.10454 12.47 9.37C12.3786 9.57802 12.3313 9.80277 12.3313 10.03C12.3313 10.2572 12.3786 10.482 12.47 10.69C12.677 11.1596 12.9497 11.5973 13.28 11.99L13.54 12.39L13.12 12.83C12.96 12.98 12.76 13.21 12.54 13.4C12.32 13.59 12.32 13.61 12.19 13.61C11.942 13.5817 11.7032 13.4998 11.49 13.37C11.2137 13.2417 10.9145 13.1702 10.61 13.16C10.2452 13.1708 9.89395 13.3007 9.61 13.53C9.36335 13.7125 9.17 13.9576 9.05 14.24C8.90939 14.726 8.79918 15.2203 8.72 15.72C8.66855 15.8619 8.60498 15.999 8.53 16.13L7.84 16C7.53162 15.9692 7.2269 15.9089 6.93 15.82C6.73221 15.7846 6.55428 15.6779 6.43 15.52C6.34055 15.2938 6.29311 15.0532 6.29 14.81C6.26838 14.5501 6.21118 14.2944 6.12 14.05Z" fill="white"/>
<path d="M15.77 12.36C16.1397 12.6133 16.4391 12.9563 16.6402 13.3568C16.8413 13.7572 16.9376 14.2022 16.92 14.65C16.9204 14.9914 16.8594 15.3301 16.74 15.65C16.599 16.1155 16.2933 16.5137 15.88 16.77C15.4345 17.035 14.9159 17.1507 14.4 17.1C14.1555 17.102 13.9151 17.038 13.7039 16.9148C13.4927 16.7916 13.3186 16.6138 13.2 16.4C13.1695 16.3138 13.106 16.2433 13.0235 16.2039C12.941 16.1645 12.8462 16.1595 12.76 16.19C12.6738 16.2205 12.6033 16.284 12.5639 16.3665C12.5245 16.449 12.5195 16.5438 12.55 16.63C12.655 16.9238 12.8272 17.1889 13.0529 17.4042C13.2787 17.6195 13.5516 17.779 13.85 17.87C14.6997 18.1547 15.626 18.1046 16.44 17.73C16.9977 17.4224 17.4401 16.9415 17.7 16.36C17.9557 15.8037 18.0593 15.1894 18 14.58C17.9445 13.9842 17.7294 13.4144 17.3775 12.9305C17.0255 12.4466 16.5497 12.0664 16 11.83C15.9648 11.8058 15.9248 11.7894 15.8828 11.7818C15.8407 11.7743 15.7976 11.7758 15.7562 11.7863C15.7147 11.7968 15.6761 11.8161 15.6427 11.8427C15.6093 11.8694 15.582 11.9029 15.5626 11.941C15.5432 11.979 15.5322 12.0208 15.5302 12.0635C15.5283 12.1061 15.5355 12.1487 15.5513 12.1884C15.5672 12.2281 15.5913 12.2639 15.6221 12.2935C15.6529 12.3231 15.6897 12.3458 15.73 12.36H15.77Z" fill="white"/>
<path d="M22.23 16.14C22.6841 15.9317 23.1191 15.6841 23.53 15.4C23.704 15.2139 23.836 14.9926 23.917 14.751C23.9981 14.5095 24.0264 14.2534 24 14C23.8643 13.0355 23.5233 12.1114 23 11.29C22.8565 11.0266 22.6321 10.8163 22.36 10.69C21.988 10.5449 21.5879 10.4868 21.19 10.52C20.9991 10.5491 20.804 10.5335 20.6201 10.4745C20.4362 10.4155 20.2684 10.3147 20.13 10.18C20.072 10.1139 20.0301 10.0352 20.0075 9.95024C19.985 9.86523 19.9824 9.77616 20 9.68999C20.0968 9.26095 20.1702 8.82698 20.22 8.38999C20.224 8.08658 20.1553 7.78661 20.0196 7.5152C19.8839 7.2438 19.6851 7.00884 19.44 6.82999C18.7554 6.39174 17.9711 6.13374 17.16 6.07999C17.1206 6.07437 17.0804 6.07667 17.0418 6.08675C17.0033 6.09683 16.9671 6.11448 16.9355 6.13869C16.9038 6.16289 16.8773 6.19316 16.8575 6.22772C16.8377 6.26228 16.8249 6.30045 16.82 6.33999C16.8144 6.37944 16.8167 6.41961 16.8268 6.45816C16.8368 6.49671 16.8545 6.53287 16.8787 6.56452C16.9029 6.59617 16.9332 6.62268 16.9677 6.64251C17.0023 6.66233 17.0405 6.67508 17.08 6.67999C17.773 6.73524 18.4406 6.96579 19.02 7.34999C19.1722 7.46797 19.2947 7.61976 19.3781 7.79333C19.4614 7.9669 19.5031 8.15749 19.5 8.34999C19.5 8.82999 19.22 9.34999 19.23 9.82999C19.2303 10.1349 19.3404 10.4295 19.54 10.66C19.7059 10.875 19.9271 11.0409 20.18 11.14C20.5452 11.2724 20.9316 11.3368 21.32 11.33C21.67 11.33 22.02 11.33 22.23 11.7C22.5927 12.3172 22.8528 12.9893 23 13.69C23.06 14.07 23.08 14.44 22.85 14.69C22.62 14.94 21.7 15.19 21.27 15.54C21.0534 15.7068 20.9014 15.9436 20.84 16.21C20.7961 16.4001 20.7976 16.5979 20.8445 16.7873C20.8915 16.9767 20.9824 17.1524 21.11 17.3C21.3152 17.526 21.5431 17.7304 21.79 17.91C21.93 18.01 22.08 18.09 22.12 18.22L21.89 18.75C21.6155 19.2078 21.3185 19.6516 21 20.08C20.8424 20.3082 20.654 20.5135 20.44 20.69L20.1 20.58C19.6008 20.2803 19.0793 20.0195 18.54 19.8C18.348 19.7394 18.1447 19.7232 17.9454 19.7527C17.7462 19.7821 17.5563 19.8564 17.39 19.97C17.1279 20.1463 16.9202 20.3922 16.79 20.68C16.6466 21.1084 16.5494 21.5509 16.5 22C16.5 22.23 16.43 22.45 16.19 22.52C15.9305 22.5883 15.6665 22.6385 15.4 22.67C14.97 22.72 14.53 22.73 14.09 22.77L13.54 22.85C13.3971 22.6508 13.292 22.4271 13.23 22.19C13.1132 21.7947 12.9415 21.4177 12.72 21.07C12.5956 20.8924 12.4368 20.7416 12.253 20.6265C12.0692 20.5114 11.8641 20.4344 11.65 20.4C11.345 20.3412 11.0289 20.3945 10.76 20.55C10.4375 20.766 10.162 21.0449 9.95 21.37C9.76 21.61 9.59 21.89 9.21 21.74C9.00831 21.6492 8.81434 21.5422 8.63 21.42C8.14 21.09 7.7 20.68 7.22 20.36C7.08 20.27 6.85 20.15 6.66 20.02C6.58607 19.9764 6.52149 19.9186 6.47 19.85C6.38 19.64 6.57 19.35 6.76 19.07C6.95378 18.7673 7.20522 18.5056 7.5 18.3C7.53904 18.2773 7.57317 18.2471 7.60039 18.211C7.62762 18.175 7.64739 18.1339 7.65856 18.0902C7.66974 18.0464 7.67208 18.0009 7.66546 17.9562C7.65884 17.9115 7.64338 17.8686 7.62 17.83C7.59828 17.7913 7.56898 17.7574 7.53384 17.7302C7.49871 17.7031 7.45846 17.6834 7.41552 17.6722C7.37257 17.661 7.32781 17.6585 7.28391 17.665C7.24 17.6715 7.19786 17.6868 7.16 17.71C6.68161 18.0184 6.28389 18.4367 6 18.93C5.86672 19.1079 5.77582 19.3139 5.73422 19.5322C5.69263 19.7506 5.70145 19.9756 5.76 20.19C5.83592 20.3424 5.94531 20.4758 6.08 20.58C6.29 20.76 6.59 20.92 6.75 21.04C7.23 21.37 7.65 21.8 8.13 22.13C8.35576 22.2985 8.60082 22.4395 8.86 22.55C9.13276 22.6866 9.44707 22.7152 9.74 22.63C10.1444 22.4819 10.4935 22.2131 10.74 21.86C10.94 21.6 11.12 21.28 11.5 21.35C11.5936 21.3681 11.6825 21.405 11.7615 21.4582C11.8406 21.5115 11.9081 21.5801 11.96 21.66C12.1477 22.0077 12.2921 22.3771 12.39 22.76C12.4972 23.1172 12.6894 23.4432 12.95 23.71C13.0714 23.8144 13.221 23.8806 13.38 23.9C13.648 23.9076 13.9161 23.8875 14.18 23.84C14.64 23.84 15.08 23.84 15.53 23.77C15.867 23.7431 16.2014 23.6896 16.53 23.61C16.867 23.5338 17.1632 23.334 17.36 23.05C17.5654 22.6807 17.6882 22.2713 17.72 21.85C17.77 21.5 17.78 21.12 18.09 20.91C18.2 20.83 18.33 20.91 18.47 20.96C18.93 21.15 19.4 21.51 19.73 21.65C19.9703 21.7588 20.2272 21.8265 20.49 21.85C20.6704 21.8469 20.8466 21.7951 21 21.7C21.3581 21.4422 21.6722 21.1281 21.93 20.77C22.29 20.27 22.61 19.69 22.85 19.29C23.0241 19.0146 23.1461 18.7095 23.21 18.39C23.2487 18.1859 23.2315 17.9751 23.16 17.78C23.1148 17.6553 23.047 17.5401 22.96 17.44C22.7486 17.2061 22.5103 16.998 22.25 16.82C22.1428 16.7537 22.0452 16.673 21.96 16.58C21.9342 16.5578 21.9136 16.5301 21.8998 16.499C21.8859 16.4679 21.8792 16.434 21.88 16.4C21.91 16.27 22.08 16.22 22.23 16.14Z" fill="white"/>
</g>
<defs>
<clipPath id="clip0_3_108">
<rect width="24" height="24" fill="white"/>
</clipPath>
</defs>
</svg>
